<?xml version="1.0" encoding="UTF-8" standalone="no"?>
<!-- Generator: Adobe Illustrator 21.0.0, SVG Export Plug-In . SVG Version: 6.00 Build 0)  -->

<svg
   xmlns:dc="http://purl.org/dc/elements/1.1/"
   xmlns:cc="http://creativecommons.org/ns#"
   xmlns:rdf="http://www.w3.org/1999/02/22-rdf-syntax-ns#"
   xmlns:svg="http://www.w3.org/2000/svg"
   xmlns="http://www.w3.org/2000/svg"
   xmlns:sodipodi="http://sodipodi.sourceforge.net/DTD/sodipodi-0.dtd"
   xmlns:inkscape="http://www.inkscape.org/namespaces/inkscape"
   version="1.1"
   id="Layer_1"
   x="0px"
   y="0px"
   viewBox="0 0 621 747.2"
   style="enable-background:new 0 0 621 747.2;"
   xml:space="preserve"
   sodipodi:docname="mug_steam.99fea686.svg"
   inkscape:version="0.92.2 (5c3e80d, 2017-08-06)"><metadata
     id="metadata40"><rdf:RDF><cc:Work
         rdf:about=""><dc:format>image/svg+xml</dc:format><dc:type
           rdf:resource="http://purl.org/dc/dcmitype/StillImage" /></cc:Work></rdf:RDF></metadata><defs
     id="defs38" /><sodipodi:namedview
     pagecolor="#ffffff"
     bordercolor="#666666"
     borderopacity="1"
     objecttolerance="10"
     gridtolerance="10"
     guidetolerance="10"
     inkscape:pageopacity="0"
     inkscape:pageshadow="2"
     inkscape:window-width="3840"
     inkscape:window-height="2004"
     id="namedview36"
     showgrid="false"
     inkscape:zoom="1.7866938"
     inkscape:cx="319.10562"
     inkscape:cy="319.24128"
     inkscape:window-x="-16"
     inkscape:window-y="-16"
     inkscape:window-maximized="1"
     inkscape:current-layer="mug" /><style
     type="text/css"
     id="style2">
	.st0{fill:#E3E8F3;}
	.st1{fill:#EFF2FA;}
	.st2{fill:#D7DEED;}
	.st3{fill:#FFD782;}
	.st4{fill:#FFC36E;}
</style><title
     id="title4">2560x1440</title><desc
     id="desc6">Created with Sketch.</desc><g
     id="Page-1"><g
       id="_x32_560x1440"><g
         id="mug"
         transform="translate(109.000000, 0.000000)"><path
           id="Shape"
           class="st0"
           d="M432.2,597.1c-43.8,0-79.4-35.6-79.4-79.4V394.1c0-43.8,35.6-79.4,79.4-79.4s79.4,35.6,79.4,79.4     v123.6C511.7,561.5,476,597.1,432.2,597.1z M432.2,350c-24.3,0-44.1,19.8-44.1,44.1v123.6c0,24.3,19.8,44.1,44.1,44.1     s44.1-19.8,44.1-44.1V394.1C476.4,369.8,456.6,350,432.2,350z"
           style="fill:#212121;fill-opacity:1" /><path
           id="Shape_1_"
           class="st1"
           d="M0.3,261.7l16.4,442c0.3,9.5,8.1,17,17.6,17h336.7c9.5,0,17.3-7.5,17.6-17l16.4-442     c0.4-10-7.6-18.3-17.6-18.3H18C8,243.4,0,251.7,0.3,261.7z"
           style="fill:#313131;fill-opacity:1" /><g
           id="Group"
           transform="translate(0.000000, 8.000000)"><path
             id="Shape_2_"
             class="st0"
             d="M35,712.7l4.8,14.4c2.4,7.2,9.2,12.1,16.7,12.1h292.3c7.6,0,14.3-4.9,16.7-12.1l4.8-14.4H35z      "
             style="fill:#212121;fill-opacity:1" /><path
             id="Shape_3_"
             class="st0"
             d="M166.1,695.7l-16.4-442c-0.4-10,7.6-18.3,17.6-18.3H18c-10,0-18,8.3-17.6,18.3l16.4,442      c0.3,9.5,8.1,17,17.6,17h149.4C174.3,712.7,166.5,705.2,166.1,695.7z"
             style="fill:#212121;fill-opacity:1" /></g><g
           id="Group_1_"
           transform="translate(34.000000, 0.000000)"
           style="fill:#212121;fill-opacity:1"><path
             id="Shape_4_"
             class="st2"
             d="M173.5,735.1l-4.8-14.4H1l4.8,14.4c2.4,7.2,9.1,12.1,16.7,12.1h167.7      C182.7,747.2,175.9,742.3,173.5,735.1z"
             style="fill:#212121;fill-opacity:1" /><path
             id="Shape_5_"
             class="st2"
             d="M274.6,464.7c-4.9,0-8.8-4-8.8-8.8V244c0-4.9,4-8.8,8.8-8.8s8.8,4,8.8,8.8v211.9      C283.5,460.8,279.5,464.7,274.6,464.7z"
             style="fill:#212121;fill-opacity:1" /></g><path
           id="Shape_6_"
           class="st3"
           d="M302.4,432l-26.5,26.5c-1.7,1.7-2.6,3.9-2.6,6.2V514c0,4.9,4,8.8,8.8,8.8h53     c4.9,0,8.8-4,8.8-8.8v-49.3c0-2.3-0.9-4.6-2.6-6.2L314.9,432C311.4,428.6,305.8,428.6,302.4,432z"
           style="fill:#5f00a0;fill-opacity:1" /><path
           id="Shape_7_"
           class="st4"
           d="M308.6,505.2c-4.9,0-8.8-4-8.8-8.8v-35.3c0-4.9,4-8.8,8.8-8.8s8.8,4,8.8,8.8v35.3     C317.5,501.3,313.5,505.2,308.6,505.2z"
           style="fill:#5500b4;fill-opacity:1" /></g></g></g><g
     id="g33"
     style="fill:#414141;fill-opacity:1"><path
       class="st1"
       d="M310.5,223.9c-4,0-8-1.5-11-4.6c-31.5-31.5-31.5-82.6,0-114.1c6.1-6.1,15.9-6.1,22,0s6.1,15.9,0,22   c-19.3,19.3-19.3,50.7,0,70c6.1,6.1,6.1,15.9,0,22C318.5,222.4,314.5,223.9,310.5,223.9z"
       id="path21"
       style="fill:#414141;fill-opacity:1" /><path
       class="st1"
       d="M310.5,131.8c-4,0-8-1.5-11-4.6c-6.1-6.1-6.1-15.9,0-22c19.3-19.3,19.3-50.7,0-70c-6.1-6.1-6.1-15.9,0-22   s15.9-6.1,22,0c31.5,31.5,31.5,82.6,0,114.1C318.5,130.3,314.5,131.8,310.5,131.8z"
       id="path23"
       style="fill:#414141;fill-opacity:1" /><path
       class="st1"
       d="M193.6,223.9c-4,0-8-1.5-11-4.6c-10.2-10.2-15.9-23.8-15.9-38.2c0-14.5,5.6-28.1,15.9-38.3   c6.1-6.1,16-6.1,22.1,0c6.1,6.1,6.1,15.9,0,22c-4.3,4.3-6.7,10.1-6.7,16.2c0,6.1,2.4,11.9,6.7,16.2c6.1,6.1,6.1,15.9,0,22   C201.6,222.4,197.6,223.9,193.6,223.9z"
       id="path25"
       style="fill:#414141;fill-opacity:1" /><path
       class="st1"
       d="M193.6,169.4c-4,0-8-1.5-11-4.6c-6.1-6.1-6.1-15.9,0-22c8.9-8.9,8.9-23.5,0-32.4c-6.1-6.1-6.1-15.9,0-22   c6.1-6.1,15.9-6.1,22,0c21.1,21.1,21.1,55.4,0,76.5C201.6,167.9,197.6,169.4,193.6,169.4z"
       id="path27"
       style="fill:#414141;fill-opacity:1" /><path
       class="st1"
       d="M427.4,223.9c-4,0-8-1.5-11-4.6c-10.2-10.2-15.9-23.8-15.9-38.2c0-14.5,5.6-28.1,15.9-38.3   c6.1-6.1,16-6.1,22.1,0c6.1,6.1,6.1,15.9,0,22c-4.3,4.3-6.7,10.1-6.7,16.2c0,6.1,2.4,11.9,6.7,16.2c6.1,6.1,6.1,15.9,0,22   C435.4,222.4,431.4,223.9,427.4,223.9z"
       id="path29"
       style="fill:#414141;fill-opacity:1" /><path
       class="st1"
       d="M427.4,169.4c-4,0-8-1.5-11-4.6c-6.1-6.1-6.1-15.9,0-22c8.9-8.9,8.9-23.5,0-32.4c-6.1-6.1-6.1-15.9,0-22   c6.1-6.1,15.9-6.1,22,0c21.1,21.1,21.1,55.4,0,76.5C435.4,167.9,431.4,169.4,427.4,169.4z"
       id="path31"
       style="fill:#414141;fill-opacity:1" /></g></svg>